<svg width="491" height="325" xmlns="http://www.w3.org/2000/svg" xmlns:xlink="http://www.w3.org/1999/xlink" xml:space="preserve" overflow="hidden"><defs><clipPath id="clip0"><rect x="2266" y="1896" width="491" height="325"/></clipPath></defs><g clip-path="url(#clip0)" transform="translate(-2266 -1896)"><path d="M387.678 3.36788 353.686 37.3599 359.628 43.3076C359.643 43.3076 359.643 43.3076 359.643 43.3124L436.776 120.446C441.789 125.453 448.456 128.214 455.52 128.214 462.603 128.214 469.275 125.453 474.273 120.441L489.517 105.197 387.678 3.36788Z" fill="#FFFFFF" transform="matrix(1 0 0 1.0029 2266.74 1896)"/><path d="M369.688 199.919 363.491 193.717 357.279 187.509 342.021 172.256C339.568 169.784 336.288 168.438 332.808 168.438 329.332 168.438 326.057 169.784 323.605 172.256 318.524 177.318 318.524 185.586 323.605 190.662L338.863 205.925 345.075 212.132 351.277 218.339 360.823 227.87C363.28 230.342 366.555 231.688 370.031 231.688 373.511 231.688 376.776 230.337 379.238 227.87 384.32 222.808 384.32 214.545 379.238 209.469L369.688 199.919Z" fill="#FFFFFF" transform="matrix(1 0 0 1.0029 2266.74 1896)"/><path d="M338.878 230.744 332.681 224.536 326.483 218.334 311.215 203.066C308.753 200.609 305.488 199.253 301.998 199.253 298.522 199.253 295.257 200.609 292.8 203.066 287.723 208.133 287.723 216.396 292.8 221.472L308.068 236.74 314.27 242.947 320.472 249.149 330.022 258.685C332.475 261.143 335.76 262.499 339.225 262.499 342.701 262.499 345.981 261.157 348.438 258.685 353.509 253.619 353.5 245.356 348.438 240.279L338.878 230.744Z" fill="#FFFFFF" transform="matrix(1 0 0 1.0029 2266.74 1896)"/><path d="M317.613 271.09 308.063 261.544 301.865 255.337 295.658 249.135 280.39 233.867C277.943 231.419 274.663 230.053 271.187 230.053 267.702 230.053 264.437 231.409 261.98 233.867 259.522 236.329 258.171 239.599 258.171 243.074 258.171 246.54 259.508 249.805 261.97 252.277 261.975 252.277 261.975 252.277 261.98 252.277L277.243 267.545 283.45 273.748 289.647 279.95 299.198 289.5C301.66 291.972 304.925 293.323 308.41 293.323 311.886 293.323 315.156 291.972 317.613 289.5 320.075 287.043 321.431 283.773 321.431 280.297 321.431 276.822 320.075 273.562 317.618 271.104 317.628 271.104 317.628 271.104 317.613 271.09Z" fill="#FFFFFF" transform="matrix(1 0 0 1.0029 2266.74 1896)"/><path d="M277.253 292.354 271.055 286.152 264.858 279.96 249.59 264.682C247.118 262.234 243.853 260.864 240.377 260.864 236.907 260.864 233.641 262.219 231.179 264.682 226.103 269.753 226.103 278.021 231.179 283.102L246.442 298.361 252.645 304.572 258.847 310.775 268.397 320.315C270.85 322.773 274.12 324.124 277.6 324.124 281.09 324.124 284.36 322.787 286.808 320.315 291.874 315.244 291.874 306.981 286.808 301.905L277.253 292.354Z" fill="#FFFFFF" transform="matrix(1 0 0 1.0029 2266.74 1896)"/><path d="M327.722 70.4855C316.664 70.4855 306.276 66.1827 298.468 58.3651 293.965 53.8664 287.968 51.3895 281.609 51.3895 275.231 51.3895 269.254 53.8713 264.75 58.37L258.847 64.2785 323.341 128.772C324.985 130.417 325.92 132.669 325.911 135.004 325.911 137.339 324.966 139.566 323.311 141.216L304.083 160.199C296.26 167.89 285.927 172.143 274.957 172.143 263.884 172.143 253.477 167.831 245.649 160.003L218.476 132.84C214.658 129.022 209.596 126.927 204.202 126.927 199.948 126.927 195.807 128.322 192.385 130.774L129.453 193.692 129.443 193.702 117.029 206.121C111.948 211.187 111.948 219.45 117.029 224.527 119.486 226.974 122.751 228.34 126.237 228.34 129.717 228.34 132.982 226.989 135.444 224.527 138.866 221.1 144.417 221.1 147.839 224.527 149.557 226.24 150.414 228.477 150.414 230.719 150.414 232.976 149.557 235.218 147.839 236.926 142.768 242.002 142.768 250.27 147.839 255.342 150.306 257.789 153.571 259.16 157.052 259.16 160.527 259.16 163.792 257.804 166.25 255.342 169.681 251.915 175.232 251.915 178.654 255.342 180.367 257.055 181.224 259.297 181.224 261.554 181.224 263.796 180.367 266.033 178.654 267.756 176.192 270.204 174.841 273.483 174.841 276.969 174.841 280.444 176.192 283.714 178.654 286.172 181.116 288.619 184.381 289.98 187.862 289.98 191.337 289.98 194.603 288.619 197.065 286.172 200.496 282.745 206.047 282.745 209.474 286.172 211.187 287.885 212.044 290.122 212.044 292.364 212.044 294.616 211.187 296.858 209.474 298.566 204.398 303.647 204.398 311.905 209.474 316.987 211.931 319.449 215.196 320.8 218.672 320.8 222.157 320.8 225.418 319.449 227.89 316.987L234.067 310.799 218.799 295.531C206.88 283.611 206.88 264.231 218.799 252.312 224.561 246.545 232.237 243.363 240.407 243.363 240.49 243.363 240.573 243.373 240.671 243.373 240.671 243.27 240.661 243.207 240.661 243.104 240.661 234.939 243.833 227.258 249.6 221.497 255.371 215.74 263.057 212.548 271.212 212.548 271.315 212.548 271.393 212.563 271.501 212.563 271.427 204.638 274.389 196.703 280.42 190.686 286.196 184.905 293.857 181.738 302.022 181.738 302.12 181.738 302.208 181.748 302.311 181.748 302.228 173.837 305.199 165.887 311.23 159.876 317.016 154.095 324.682 150.923 332.832 150.923 340.997 150.923 348.668 154.09 354.44 159.876L369.693 175.13 418.16 126.662 353.216 61.6987C345.966 67.4016 337.076 70.4855 327.722 70.4855Z" fill="#FFFFFF" transform="matrix(1 0 0 1.0029 2266.74 1896)"/><path d="M177.406 120.514C178.458 119.457 179.589 118.483 180.769 117.567 186.614 112.946 193.77 110.127 201.206 109.534 202.175 109.456 203.145 109.378 204.119 109.378 207.066 109.378 209.939 109.745 212.739 110.396 219.558 111.967 225.799 115.379 230.856 120.426L258.029 147.599C262.543 152.112 268.544 154.609 274.932 154.609 281.252 154.609 287.224 152.161 291.728 147.712L304.675 134.921 246.437 76.6828 240.23 70.4855 234.028 64.2785 224.757 55.0021C220.253 50.4937 214.262 48.0167 207.908 48.0167 201.534 48.0167 195.547 50.4986 191.049 55.0021 183.231 62.8197 172.839 67.1177 161.79 67.1177 152.426 67.1177 143.536 64.0337 136.296 58.3406L71.3618 123.27 123.182 175.1 177.406 120.514Z" fill="#FFFFFF" transform="matrix(1 0 0 1.0029 2266.74 1896)"/><path d="M129.888 39.9495 135.841 33.992 101.849 0 0 101.839 15.2436 117.083C20.2562 122.086 26.9087 124.846 33.992 124.846 41.0754 124.846 47.7475 122.095 52.7405 117.092L129.874 39.9544C129.879 39.9495 129.888 39.9495 129.888 39.9495Z" fill="#FFFFFF" transform="matrix(1 0 0 1.0029 2266.74 1896)"/></g></svg>